# xmcd
#
# Track frame offsets:
#	150
#	18916
#	32937
#	46099
#	64271
#	77020
#	90946
#	102945
#	121916
#	135127
#	147004
#	160358
#	172664
#	183552
#	194579
#	209979
#	223324
#	236819
#
# Disc length: 3383 seconds
#
# Revision: 1
# Processed by: cddbd v1.5.2PL0 Copyright (c) Steve Scherf et al.
# Submitted via: audiograbber 1.83.01
#
DISCID=fb0d3512
DTITLE=Gene Watson - You Gave Me A Mountain
DYEAR=1959
DGENRE=Country
TTITLE0=Farwell Party
TTITLE1=Bad Waters
TTITLE2=You Could Know As Much As The Stranger
TTITLE3=Paper Rosie
TTITLE4=I Don't Need A Friend At All
TTITLE5=Where Love Begins
TTITLE6=Cowboy's Don't Get Lucky All The Time
TTITLE7=The Old Man And His Horn
TTITLE8=Because You Believed In Me
TTITLE9=Should I Come Home
TTITLE10=Bedroom Ballad
TTITLE11=She's Raisin' Cane In Texas
TTITLE12=Her Body Could'nt Keep You Off My Mind
TTITLE13=Pick The Wildwood Flower
TTITLE14=Love In The Hot Afternoon
TTITLE15=One Sidded Conversation
TTITLE16=No One Will Ever Know
TTITLE17=Nothing Sure Looked Good On You
EXTD=
EXTT0=
EXTT1=
EXTT2=
EXTT3=
EXTT4=
EXTT5=
EXTT6=
EXTT7=
EXTT8=
EXTT9=
EXTT10=
EXTT11=
EXTT12=
EXTT13=
EXTT14=
EXTT15=
EXTT16=
EXTT17=
PLAYORDER=
